<svg width="20" height="18" viewBox="0 0 20 18" fill="none" xmlns="http://www.w3.org/2000/svg">
<mask id="path-1-inside-1_87_1697" fill="white">
<path d="M0 20H20V0H0V20Z"/>
</mask>
<path d="M0 0H-2V-2H0V0ZM20 2H0V-2H20V2ZM2 0V20H-2V0H2Z" fill="black" mask="url(#path-1-inside-1_87_1697)"/>
<path d="M5.2274 7.96935C5.36805 7.82874 5.55878 7.74976 5.75765 7.74976C5.95653 7.74976 6.14726 7.82874 6.2879 7.96935L10.0004 11.6818L13.7129 7.96935C13.8544 7.83273 14.0438 7.75713 14.2405 7.75884C14.4371 7.76055 14.6252 7.83943 14.7643 7.97848C14.9033 8.11754 14.9822 8.30565 14.9839 8.5023C14.9856 8.69894 14.91 8.8884 14.7734 9.02985L10.5307 13.2726C10.39 13.4132 10.1993 13.4922 10.0004 13.4922C9.80153 13.4922 9.6108 13.4132 9.47015 13.2726L5.2274 9.02985C5.0868 8.8892 5.00781 8.69847 5.00781 8.4996C5.00781 8.30072 5.0868 8.10999 5.2274 7.96935Z" fill="#202020"/>
</svg>
