<svg width="20" height="20" viewBox="0 0 20 20" fill="none" xmlns="http://www.w3.org/2000/svg">
<mask id="path-1-inside-1_87_1694" fill="white">
<path d="M0 0H20V20H0V0Z"/>
</mask>
<path d="M0 20H-2V22H0V20ZM20 18H0V22H20V18ZM2 20V0H-2V20H2Z" fill="black" mask="url(#path-1-inside-1_87_1694)"/>
<path d="M5.2274 12.0307C5.36805 12.1713 5.55878 12.2502 5.75765 12.2502C5.95653 12.2502 6.14726 12.1713 6.2879 12.0307L10.0004 8.31815L13.7129 12.0307C13.8544 12.1673 14.0438 12.2429 14.2405 12.2412C14.4371 12.2394 14.6252 12.1606 14.7643 12.0215C14.9033 11.8825 14.9822 11.6944 14.9839 11.4977C14.9856 11.3011 14.91 11.1116 14.7734 10.9702L10.5307 6.7274C10.39 6.5868 10.1993 6.50781 10.0004 6.50781C9.80153 6.50781 9.6108 6.5868 9.47015 6.7274L5.2274 10.9702C5.0868 11.1108 5.00781 11.3015 5.00781 11.5004C5.00781 11.6993 5.0868 11.89 5.2274 12.0307Z" fill="#202020"/>
</svg>
