<svg width="90" height="90" viewBox="0 0 90 90" fill="none" xmlns="http://www.w3.org/2000/svg">
<g clip-path="url(#clip0_87_147)">
<path d="M71.3871 44.3639C71.3871 59.705 59.0944 72.131 43.9434 72.131C28.7924 72.131 16.4997 59.705 16.4997 44.3639C16.4997 29.0228 28.7924 16.5968 43.9434 16.5968C59.0944 16.5968 71.3871 29.0228 71.3871 44.3639Z" fill="#C28989" stroke="black" stroke-width="1.06182"/>
<path d="M0.257812 40.4268C0.257812 39.4772 0.621206 38.5582 1.34799 37.6699C2.07478 36.7815 2.87727 35.9238 3.75547 35.0967C4.63367 34.2697 5.92069 33.2894 7.61653 32.156C9.34265 30.9919 11.1748 29.9657 13.1129 29.0774C15.051 28.1584 17.4281 27.3773 20.2444 26.734C23.0607 26.0907 25.9679 25.769 28.9659 25.769C31.5702 25.769 34.1594 26.2745 36.7334 27.2854C38.0356 27.8061 39.0955 28.5719 39.9131 29.5828C40.761 30.5631 41.185 31.7118 41.185 33.029C41.185 35.0814 39.9585 37.1338 37.5056 39.1862C35.0527 41.2386 30.7677 43.5208 24.6506 46.0327C24.0449 46.1858 23.7421 46.4002 23.7421 46.6759C23.7421 46.7678 23.8027 46.8751 23.9238 46.9976C28.224 52.0214 31.767 55.5288 34.5531 57.52C34.8862 57.7957 35.0527 58.0714 35.0527 58.347C35.0527 59.021 34.0685 59.3579 32.1002 59.3579C30.1318 59.3579 28.4965 58.7146 27.1943 57.4281C21.6829 51.5159 18.2155 47.5643 16.7922 45.5732C16.7619 45.4506 16.7014 45.3894 16.6105 45.3894C16.5499 45.3894 16.4742 45.4506 16.3834 45.5732C11.4776 51.6691 8.64614 55.6667 7.88907 57.5659C7.88907 58.056 7.79823 58.3011 7.61653 58.3011C7.46511 58.3011 7.20771 58.2092 6.84432 58.0254C6.48092 57.8416 6.10239 57.4893 5.70871 56.9686C5.31504 56.4478 5.1182 55.8198 5.1182 55.0847C5.1182 54.3188 5.42103 53.3845 6.02668 52.2817C10.3268 45.9714 14.8693 40.6719 19.6539 36.3833C21.6829 34.576 23.5907 33.1669 25.3774 32.156C25.6499 31.9109 25.8922 31.7884 26.1042 31.7884C26.3464 31.7884 26.619 31.8956 26.9218 32.11C27.2549 32.3245 27.4215 32.5848 27.4215 32.8912C27.4215 33.1669 27.3003 33.4119 27.0581 33.6264C23.091 37.6699 20.3656 40.6872 18.8817 42.6784C18.488 43.1072 18.2912 43.3982 18.2912 43.5514C18.2912 43.7046 18.3669 43.7811 18.5183 43.7811H18.7C22.334 42.7703 25.2714 41.7594 27.5123 40.7485C32.2667 38.5736 35.8704 36.2761 38.3233 33.8561C38.8381 33.366 39.0955 32.8912 39.0955 32.4317C39.0955 31.7271 38.505 31.1911 37.3239 30.8235C36.1732 30.4559 34.3259 30.2721 31.7822 30.2721C29.2687 30.2721 26.1799 30.655 22.5157 31.4208C18.8514 32.1866 15.2024 33.4272 11.5684 35.1427C7.9345 36.8275 5.23933 38.788 3.48293 41.0242C3.24067 41.2999 3.11954 41.499 3.11954 41.6215C3.11954 41.7134 3.28609 41.7594 3.6192 41.7594C3.95231 41.7594 4.98193 41.3765 6.70805 40.6106C8.46445 39.8448 9.96344 39.0943 11.205 38.3591C13.1431 37.0419 14.3544 36.3833 14.839 36.3833C15.0207 36.3833 15.1115 36.4293 15.1115 36.5212C15.1115 36.5824 14.9147 36.8428 14.521 37.3023C14.1576 37.7618 13.6277 38.3438 12.9312 39.0484C12.2649 39.7529 11.4322 40.5341 10.4328 41.3918C8.16162 43.3829 6.07211 44.3785 4.16429 44.3785C3.13468 44.3785 2.3019 44.0568 1.66596 43.4135C0.999741 42.7396 0.606064 42.0657 0.484933 41.3918L0.257812 40.4268Z" fill="black"/>
<path d="M48.0618 34.7291C48.3646 34.7291 48.5614 34.7904 48.6523 34.9129C49.0763 35.4337 49.2882 35.8626 49.2882 36.1995C49.2882 36.5058 49.1974 36.7815 49.0157 37.0266C48.834 37.241 48.6069 37.5014 48.3343 37.8077C48.0921 38.0834 47.5773 38.4817 46.7899 39.0024C46.0328 39.4925 45.2909 39.7376 44.5641 39.7376C44.019 39.6457 43.7465 39.3087 43.7465 38.7267C43.7465 37.8077 44.2916 36.9194 45.3818 36.0617C46.4719 35.1733 47.3653 34.7291 48.0618 34.7291ZM37.16 52.8331C36.9177 53.262 36.7966 53.6449 36.7966 53.9819C36.7966 54.3188 36.9783 54.4873 37.3417 54.4873C37.5537 54.4873 37.9171 54.3954 38.4319 54.2116C44.0947 51.2096 49.6365 47.6715 55.0571 43.5973C55.3297 43.8118 55.4659 44.0722 55.4659 44.3785C55.4659 44.6848 55.3145 44.9758 55.0117 45.2515C54.7089 45.5272 54.2698 45.9254 53.6944 46.4462C53.1493 46.967 52.0894 47.9013 50.5147 49.2491C48.94 50.5969 47.4713 51.8223 46.1085 52.925C42.5352 55.8352 39.9006 57.5506 38.2047 58.0714C37.6596 58.2245 37.0691 58.3011 36.4332 58.3011C34.1014 58.3011 32.9355 57.0452 32.9355 54.5333C32.9355 53.553 33.4655 52.1592 34.5254 50.3519C35.5853 48.5139 36.6755 46.9057 37.7959 45.5272C38.9164 44.1181 39.6583 43.337 40.0217 43.1838C40.5668 42.8468 41.1573 42.6784 41.7932 42.6784C42.4292 42.6784 43.0348 42.8009 43.6102 43.046C43.7919 43.1379 43.8828 43.2604 43.8828 43.4135C43.8828 43.5667 43.7313 43.7965 43.4285 44.1028C43.156 44.4091 42.7169 44.8839 42.1112 45.5272C41.5358 46.1705 40.6576 47.2886 39.4766 48.8815C38.3259 50.4438 37.5537 51.761 37.16 52.8331Z" fill="black"/>
<path d="M48.4891 57.8876C48.4891 57.9488 48.5648 58.102 48.7162 58.347C49.1401 59.021 49.3521 60.0625 49.3521 61.4716C49.3521 62.8807 48.6253 64.7034 47.1718 66.9396C45.7485 69.2064 44.098 71.1516 42.2205 72.7751C40.3127 74.4293 38.7531 75.2564 37.5418 75.2564C36.0277 75.2564 35.0738 73.8779 34.6801 71.1209C34.6801 67.3225 37.4207 62.2987 42.9019 56.0496L67.6581 27.6989C67.8398 27.0863 68.294 26.7799 69.0208 26.7799C70.1412 26.7799 70.8832 26.9178 71.2466 27.1935C71.61 27.4692 71.7917 27.8061 71.7917 28.2044C71.7917 28.5719 71.4737 29.1233 70.8377 29.8585L48.6708 54.3495C48.701 54.3801 48.7919 54.3954 48.9433 54.3954C49.125 54.3954 49.3067 54.3495 49.4884 54.2576C55.0907 51.2249 60.6022 47.6715 66.0228 43.5973C66.2953 43.8118 66.4316 44.0722 66.4316 44.3785C66.4316 44.6848 66.2802 44.9758 65.9774 45.2515C65.7048 45.5272 65.3111 45.9254 64.7963 46.4462C64.2815 46.9363 63.2822 47.8553 61.7983 49.2031C60.3145 50.5204 58.876 51.7304 57.483 52.8331C56.1203 53.9053 54.591 54.9468 52.8952 55.9577C51.1994 56.9686 49.7306 57.6119 48.4891 57.8876ZM37.8144 71.2128C38.6017 71.2128 39.7828 70.4317 41.3575 68.8694C42.9322 67.3071 44.3555 65.5458 45.6273 63.5853C46.8992 61.6248 47.5351 60.1237 47.5351 59.0822C47.5351 58.0714 47.2172 57.5659 46.5812 57.5659C46.3087 57.5659 45.9907 57.7191 45.6273 58.0254C44.1738 59.4345 42.7808 61.1806 41.4483 63.2636C40.1159 65.3466 39.1317 67.0774 38.4957 68.4559C37.8598 69.8344 37.5418 70.6308 37.5418 70.8452C37.5418 71.0903 37.6327 71.2128 37.8144 71.2128Z" fill="black"/>
<path d="M78.1638 36.2455L80.4804 36.1995C83.4784 36.1995 85.6588 36.6284 87.0215 37.4861C87.6877 37.7005 88.0209 37.9762 88.0209 38.3132C88.0209 38.5582 87.718 38.7267 87.1124 38.8186C86.537 38.9105 84.4929 39.1556 80.9801 39.5538C77.4976 39.9214 75.1052 40.1358 73.8031 40.1971C73.2277 40.2277 71.8953 41.2386 69.8058 43.2297C67.7465 45.2209 65.7782 47.4111 63.9006 49.8005C62.0231 52.1898 61.0843 53.8593 61.0843 54.809C61.0843 54.9621 61.16 55.1 61.3114 55.2225C61.4629 55.3144 61.6446 55.3603 61.8565 55.3603C62.0988 55.3603 62.4622 55.2684 62.9467 55.0847C68.7004 51.6538 74.2876 47.9013 79.7082 43.8271C79.9808 44.0415 80.1171 44.3019 80.1171 44.6082C80.1171 44.9146 79.9656 45.2209 79.6628 45.5272C79.36 45.8029 78.9057 46.2164 78.3001 46.7678C77.7247 47.3192 76.6345 48.3148 75.0295 49.7545C73.4246 51.1943 71.9104 52.4809 70.4871 53.6143C66.6715 56.7388 64.0066 58.5462 62.4925 59.0363C61.9474 59.1894 61.2963 59.266 60.5392 59.266C59.8124 59.266 59.1311 58.8831 58.4951 58.1173C57.8895 57.3515 57.5867 56.31 57.5867 54.9928C57.5867 53.6755 58.4194 51.7763 60.085 49.295C61.7808 46.8138 64.0823 44.2713 66.9895 41.6675C67.262 41.453 67.3983 41.2539 67.3983 41.0701C67.3983 40.8863 67.0803 40.7944 66.4444 40.7944L63.5827 40.8863C59.555 40.8863 57.4807 40.4268 57.3595 39.5079C56.4208 39.3241 55.9514 39.0484 55.9514 38.6808C55.9514 38.5582 56.012 38.497 56.1331 38.497C56.2542 38.4663 56.3602 38.451 56.4511 38.451C56.5419 38.4204 56.6933 38.3898 56.9053 38.3591C57.1173 38.3285 58.7828 38.0834 61.902 37.6239C65.0514 37.1645 68.6247 36.7815 72.6221 36.4752L75.7563 32.2479C75.938 31.8803 76.574 31.6965 77.6641 31.6965C78.7543 31.6965 79.2994 31.9262 79.2994 32.3857C79.2994 32.5389 79.1783 32.8146 78.936 33.2128L77.8004 34.821C77.649 35.3112 77.5582 35.6788 77.5279 35.9238C77.5279 36.1383 77.7399 36.2455 78.1638 36.2455Z" fill="black"/>
<path d="M1.36523 39.3062C1.36523 38.3566 1.72863 37.4376 2.45541 36.5493C3.1822 35.6609 3.98469 34.8032 4.8629 33.9761C5.7411 33.149 7.02811 32.1688 8.72395 31.0354C10.4501 29.8713 12.2822 28.8451 14.2203 27.9568C16.1584 27.0378 18.5356 26.2567 21.3519 25.6134C24.1682 24.9701 27.0753 24.6484 30.0733 24.6484C32.6776 24.6484 35.2668 25.1539 37.8408 26.1648C39.143 26.6855 40.2029 27.4513 41.0205 28.4622C41.8685 29.4425 42.2924 30.5912 42.2924 31.9084C42.2924 33.9608 41.066 36.0132 38.6131 38.0656C36.1602 40.118 31.8751 42.4002 25.758 44.912C25.1524 45.0652 24.8495 45.2796 24.8495 45.5553C24.8495 45.6472 24.9101 45.7544 25.0312 45.877C29.3314 50.9008 32.8745 54.4082 35.6605 56.3994C35.9936 56.675 36.1602 56.9507 36.1602 57.2264C36.1602 57.9004 35.176 58.2373 33.2076 58.2373C31.2392 58.2373 29.6039 57.594 28.3018 56.3075C22.7903 50.3953 19.3229 46.4437 17.8996 44.4526C17.8694 44.33 17.8088 44.2688 17.7179 44.2688C17.6574 44.2688 17.5817 44.33 17.4908 44.4526C12.585 50.5485 9.75356 54.5461 8.9965 56.4453C8.9965 56.9354 8.90565 57.1805 8.72395 57.1805C8.57254 57.1805 8.31513 57.0886 7.95174 56.9048C7.58835 56.721 7.20981 56.3687 6.81614 55.848C6.42246 55.3272 6.22562 54.6992 6.22562 53.964C6.22562 53.1982 6.52845 52.2639 7.1341 51.1611C11.4343 44.8508 15.9767 39.5513 20.7614 35.2627C22.7903 33.4554 24.6981 32.0463 26.4848 31.0354C26.7573 30.7903 26.9996 30.6678 27.2116 30.6678C27.4538 30.6678 27.7264 30.775 28.0292 30.9894C28.3623 31.2039 28.5289 31.4642 28.5289 31.7706C28.5289 32.0463 28.4078 32.2913 28.1655 32.5058C24.1985 36.5493 21.473 39.5666 19.9891 41.5578C19.5955 41.9866 19.3986 42.2776 19.3986 42.4308C19.3986 42.584 19.4743 42.6605 19.6258 42.6605H19.8074C23.4414 41.6497 26.3788 40.6388 28.6197 39.6279C33.3741 37.453 36.9778 35.1555 39.4307 32.7355C39.9455 32.2454 40.2029 31.7706 40.2029 31.3111C40.2029 30.6065 39.6124 30.0704 38.4314 29.7029C37.2806 29.3353 35.4334 29.1515 32.8896 29.1515C30.3761 29.1515 27.2873 29.5344 23.6231 30.3002C19.9589 31.066 16.3098 32.3066 12.6759 34.0221C9.04192 35.7069 6.34675 37.6674 4.59035 39.9036C4.34809 40.1793 4.22696 40.3784 4.22696 40.5009C4.22696 40.5928 4.39351 40.6388 4.72662 40.6388C5.05973 40.6388 6.08935 40.2559 7.81547 39.49C9.57187 38.7242 11.0709 37.9737 12.3125 37.2385C14.2506 35.9213 15.4619 35.2627 15.9464 35.2627C16.1281 35.2627 16.2189 35.3087 16.2189 35.4006C16.2189 35.4618 16.0221 35.7222 15.6284 36.1817C15.265 36.6412 14.7351 37.2232 14.0386 37.9278C13.3724 38.6323 12.5396 39.4135 11.5402 40.2712C9.26904 42.2623 7.17953 43.2579 5.27171 43.2579C4.2421 43.2579 3.40932 42.9362 2.77338 42.2929C2.10716 41.619 1.71349 40.9451 1.59236 40.2712L1.36523 39.3062Z" fill="#F8E1A4"/>
<path d="M49.1692 33.6085C49.472 33.6085 49.6689 33.6698 49.7597 33.7923C50.1837 34.3131 50.3957 34.742 50.3957 35.0789C50.3957 35.3852 50.3048 35.6609 50.1231 35.906C49.9414 36.1204 49.7143 36.3808 49.4417 36.6871C49.1995 36.9628 48.6847 37.3611 47.8973 37.8818C47.1403 38.3719 46.3983 38.617 45.6715 38.617C45.1265 38.5251 44.8539 38.1881 44.8539 37.6061C44.8539 36.6871 45.399 35.7988 46.4892 34.9411C47.5794 34.0527 48.4727 33.6085 49.1692 33.6085ZM38.2674 51.7125C38.0251 52.1414 37.904 52.5243 37.904 52.8613C37.904 53.1982 38.0857 53.3667 38.4491 53.3667C38.6611 53.3667 39.0245 53.2748 39.5393 53.091C45.2022 50.089 50.7439 46.5509 56.1645 42.4767C56.4371 42.6912 56.5733 42.9515 56.5733 43.2579C56.5733 43.5642 56.4219 43.8552 56.1191 44.1309C55.8163 44.4066 55.3772 44.8048 54.8018 45.3256C54.2567 45.8463 53.1968 46.7806 51.6221 48.1285C50.0474 49.4763 48.5787 50.7017 47.216 51.8044C43.6426 54.7146 41.008 56.43 39.3122 56.9507C38.7671 57.1039 38.1766 57.1805 37.5406 57.1805C35.2088 57.1805 34.043 55.9245 34.043 53.4127C34.043 52.4324 34.5729 51.0386 35.6328 49.2313C36.6927 47.3933 37.7829 45.7851 38.9033 44.4066C40.0238 42.9975 40.7657 42.2164 41.1291 42.0632C41.6742 41.7262 42.2647 41.5578 42.9007 41.5578C43.5366 41.5578 44.1423 41.6803 44.7176 41.9253C44.8993 42.0172 44.9902 42.1398 44.9902 42.2929C44.9902 42.4461 44.8388 42.6758 44.5359 42.9822C44.2634 43.2885 43.8243 43.7633 43.2186 44.4066C42.6433 45.0499 41.7651 46.168 40.584 47.7609C39.4333 49.3232 38.6611 50.6404 38.2674 51.7125Z" fill="#F8E1A4"/>
<path d="M49.5965 56.7669C49.5965 56.8282 49.6722 56.9814 49.8236 57.2264C50.2476 57.9004 50.4595 58.9419 50.4595 60.351C50.4595 61.7601 49.7327 63.5827 48.2792 65.8189C46.8559 68.0858 45.2055 70.031 43.3279 71.6545C41.4201 73.3087 39.8606 74.1358 38.6493 74.1358C37.1351 74.1358 36.1812 72.7573 35.7875 70.0003C35.7875 66.2019 38.5281 61.1781 44.0093 54.929L68.7655 26.5783C68.9472 25.9656 69.4014 25.6593 70.1282 25.6593C71.2487 25.6593 71.9906 25.7972 72.354 26.0729C72.7174 26.3486 72.8991 26.6855 72.8991 27.0837C72.8991 27.4513 72.5811 28.0027 71.9452 28.7379L49.7782 53.2289C49.8085 53.2595 49.8993 53.2748 50.0507 53.2748C50.2324 53.2748 50.4141 53.2289 50.5958 53.137C56.1981 50.1043 61.7096 46.5509 67.1302 42.4767C67.4027 42.6912 67.539 42.9515 67.539 43.2579C67.539 43.5642 67.3876 43.8552 67.0848 44.1309C66.8122 44.4066 66.4186 44.8048 65.9038 45.3256C65.3889 45.8157 64.3896 46.7347 62.9058 48.0825C61.4219 49.3998 59.9835 50.6098 58.5905 51.7125C57.2277 52.7847 55.6985 53.8262 54.0026 54.8371C52.3068 55.848 50.8381 56.4913 49.5965 56.7669ZM38.9218 70.0922C39.7091 70.0922 40.8902 69.3111 42.4649 67.7488C44.0396 66.1865 45.4629 64.4252 46.7348 62.4647C48.0066 60.5042 48.6426 59.0031 48.6426 57.9616C48.6426 56.9507 48.3246 56.4453 47.6887 56.4453C47.4161 56.4453 47.0981 56.5985 46.7348 56.9048C45.2812 58.3139 43.8882 60.06 42.5557 62.143C41.2233 64.226 40.2391 65.9568 39.6032 67.3353C38.9672 68.7137 38.6493 69.5102 38.6493 69.7246C38.6493 69.9697 38.7401 70.0922 38.9218 70.0922Z" fill="#F8E1A4"/>
<path d="M79.2712 35.1249L81.5879 35.0789C84.5859 35.0789 86.7662 35.5078 88.1289 36.3655C88.7952 36.5799 89.1283 36.8556 89.1283 37.1926C89.1283 37.4376 88.8255 37.6061 88.2198 37.698C87.6444 37.7899 85.6003 38.035 82.0875 38.4332C78.605 38.8008 76.2127 39.0152 74.9105 39.0765C74.3351 39.1071 73.0027 40.118 70.9132 42.1091C68.854 44.1003 66.8856 46.2905 65.008 48.6799C63.1305 51.0692 62.1917 52.7387 62.1917 53.6883C62.1917 53.8415 62.2675 53.9794 62.4189 54.1019C62.5703 54.1938 62.752 54.2397 62.964 54.2397C63.2062 54.2397 63.5696 54.1478 64.0541 53.964C69.8079 50.5332 75.395 46.7806 80.8157 42.7065C81.0882 42.9209 81.2245 43.1813 81.2245 43.4876C81.2245 43.7939 81.0731 44.1003 80.7702 44.4066C80.4674 44.6823 80.0132 45.0958 79.4075 45.6472C78.8321 46.1986 77.742 47.1942 76.137 48.6339C74.532 50.0737 73.0178 51.3603 71.5946 52.4937C67.7789 55.6182 65.114 57.4256 63.5999 57.9157C63.0548 58.0688 62.4037 58.1454 61.6467 58.1454C60.9199 58.1454 60.2385 57.7625 59.6026 56.9967C58.9969 56.2309 58.6941 55.1894 58.6941 53.8721C58.6941 52.5549 59.5269 50.6557 61.1924 48.1744C62.8882 45.6932 65.1897 43.1507 68.0969 40.5469C68.3694 40.3324 68.5057 40.1333 68.5057 39.9495C68.5057 39.7657 68.1877 39.6738 67.5518 39.6738L64.6901 39.7657C60.6625 39.7657 58.5881 39.3062 58.467 38.3873C57.5282 38.2035 57.0588 37.9278 57.0588 37.5602C57.0588 37.4376 57.1194 37.3764 57.2405 37.3764C57.3616 37.3457 57.4676 37.3304 57.5585 37.3304C57.6493 37.2998 57.8007 37.2692 58.0127 37.2385C58.2247 37.2079 59.8903 36.9628 63.0094 36.5033C66.1588 36.0438 69.7322 35.6609 73.7295 35.3546L76.8638 31.1273C77.0454 30.7597 77.6814 30.5759 78.7716 30.5759C79.8617 30.5759 80.4068 30.8056 80.4068 31.2651C80.4068 31.4183 80.2857 31.694 80.0434 32.0922L78.9078 33.7004C78.7564 34.1906 78.6656 34.5582 78.6353 34.8032C78.6353 35.0176 78.8473 35.1249 79.2712 35.1249Z" fill="#F8E1A4"/>
<mask id="path-4-outside-1_87_147" maskUnits="userSpaceOnUse" x="0.46582" y="23.7065" width="90" height="52" fill="black">
<rect fill="white" x="0.46582" y="23.7065" width="90" height="52"/>
<path d="M1.46582 39.3643C1.46582 38.4147 1.82921 37.4957 2.556 36.6074C3.28279 35.719 4.08528 34.8613 4.96348 34.0342C5.84168 33.2072 7.1287 32.2269 8.82454 31.0935C10.5507 29.9294 12.3828 28.9032 14.3209 28.0149C16.259 27.0959 18.6362 26.3148 21.4525 25.6715C24.2688 25.0282 27.1759 24.7065 30.1739 24.7065C32.7782 24.7065 35.3674 25.212 37.9414 26.2229C39.2436 26.7436 40.3035 27.5094 41.1211 28.5203C41.969 29.5006 42.393 30.6493 42.393 31.9665C42.393 34.0189 41.1665 36.0713 38.7136 38.1237C36.2607 40.1761 31.9757 42.4583 25.8586 44.9702C25.2529 45.1233 24.9501 45.3377 24.9501 45.6134C24.9501 45.7053 25.0107 45.8126 25.1318 45.9351C29.432 50.9589 32.9751 54.4663 35.7611 56.4575C36.0942 56.7332 36.2607 57.0089 36.2607 57.2845C36.2607 57.9585 35.2765 58.2954 33.3082 58.2954C31.3398 58.2954 29.7045 57.6521 28.4024 56.3656C22.8909 50.4534 19.4235 46.5018 18.0002 44.5107C17.9699 44.3881 17.9094 44.3269 17.8185 44.3269C17.758 44.3269 17.6823 44.3881 17.5914 44.5107C12.6856 50.6066 9.85415 54.6042 9.09708 56.5034C9.09708 56.9935 9.00623 57.2386 8.82454 57.2386C8.67312 57.2386 8.41572 57.1467 8.05233 56.9629C7.68893 56.7791 7.3104 56.4268 6.91672 55.9061C6.52305 55.3853 6.32621 54.7573 6.32621 54.0222C6.32621 53.2563 6.62903 52.322 7.23469 51.2192C11.5348 44.9089 16.0773 39.6094 20.8619 35.3208C22.8909 33.5135 24.7987 32.1044 26.5854 31.0935C26.8579 30.8484 27.1002 30.7259 27.3122 30.7259C27.5544 30.7259 27.827 30.8331 28.1298 31.0475C28.4629 31.262 28.6295 31.5223 28.6295 31.8287C28.6295 32.1044 28.5083 32.3494 28.2661 32.5639C24.299 36.6074 21.5736 39.6247 20.0897 41.6159C19.6961 42.0447 19.4992 42.3357 19.4992 42.4889C19.4992 42.6421 19.5749 42.7186 19.7263 42.7186H19.908C23.542 41.7078 26.4794 40.6969 28.7203 39.686C33.4747 37.5111 37.0784 35.2136 39.5313 32.7936C40.0461 32.3035 40.3035 31.8287 40.3035 31.3692C40.3035 30.6646 39.713 30.1286 38.5319 29.761C37.3812 29.3934 35.534 29.2096 32.9902 29.2096C30.4767 29.2096 27.3879 29.5925 23.7237 30.3583C20.0594 31.1241 16.4104 32.3647 12.7764 34.0802C9.14251 35.765 6.44734 37.7255 4.69094 39.9617C4.44867 40.2374 4.32754 40.4365 4.32754 40.559C4.32754 40.6509 4.4941 40.6969 4.82721 40.6969C5.16032 40.6969 6.18993 40.314 7.91605 39.5481C9.67245 38.7823 11.1715 38.0318 12.413 37.2966C14.3511 35.9794 15.5625 35.3208 16.047 35.3208C16.2287 35.3208 16.3195 35.3668 16.3195 35.4587C16.3195 35.5199 16.1227 35.7803 15.729 36.2398C15.3656 36.6993 14.8357 37.2813 14.1392 37.9859C13.4729 38.6904 12.6402 39.4716 11.6408 40.3293C9.36963 42.3204 7.28011 43.316 5.3723 43.316C4.34268 43.316 3.50991 42.9943 2.87397 42.351C2.20775 41.6771 1.81407 41.0032 1.69294 40.3293L1.46582 39.3643Z"/>
<path d="M49.2698 33.6666C49.5726 33.6666 49.7695 33.7279 49.8603 33.8504C50.2843 34.3712 50.4962 34.8001 50.4962 35.137C50.4962 35.4433 50.4054 35.719 50.2237 35.9641C50.042 36.1785 49.8149 36.4389 49.5423 36.7452C49.3001 37.0209 48.7853 37.4192 47.9979 37.9399C47.2408 38.43 46.4989 38.6751 45.7721 38.6751C45.227 38.5832 44.9545 38.2462 44.9545 37.6642C44.9545 36.7452 45.4996 35.8569 46.5898 34.9992C47.6799 34.1108 48.5733 33.6666 49.2698 33.6666ZM38.368 51.7706C38.1257 52.1995 38.0046 52.5824 38.0046 52.9194C38.0046 53.2563 38.1863 53.4248 38.5497 53.4248C38.7617 53.4248 39.1251 53.3329 39.6399 53.1491C45.3027 50.1471 50.8445 46.609 56.2651 42.5348C56.5377 42.7493 56.6739 43.0097 56.6739 43.316C56.6739 43.6223 56.5225 43.9133 56.2197 44.189C55.9169 44.4647 55.4778 44.8629 54.9024 45.3837C54.3573 45.9045 53.2974 46.8388 51.7227 48.1866C50.148 49.5344 48.6793 50.7598 47.3166 51.8625C43.7432 54.7727 41.1086 56.4881 39.4127 57.0089C38.8677 57.162 38.2771 57.2386 37.6412 57.2386C35.3094 57.2386 34.1435 55.9827 34.1435 53.4708C34.1435 52.4905 34.6735 51.0967 35.7334 49.2894C36.7933 47.4514 37.8835 45.8432 39.0039 44.4647C40.1244 43.0556 40.8663 42.2745 41.2297 42.1213C41.7748 41.7843 42.3653 41.6159 43.0013 41.6159C43.6372 41.6159 44.2429 41.7384 44.8182 41.9835C44.9999 42.0754 45.0908 42.1979 45.0908 42.351C45.0908 42.5042 44.9394 42.734 44.6365 43.0403C44.364 43.3466 43.9249 43.8214 43.3192 44.4647C42.7439 45.108 41.8657 46.2261 40.6846 47.819C39.5339 49.3813 38.7617 50.6985 38.368 51.7706Z"/>
<path d="M49.6971 56.8251C49.6971 56.8863 49.7728 57.0395 49.9242 57.2845C50.3481 57.9585 50.5601 59 50.5601 60.4091C50.5601 61.8182 49.8333 63.6409 48.3798 65.8771C46.9565 68.1439 45.3061 70.0891 43.4285 71.7126C41.5207 73.3668 39.9611 74.1939 38.7498 74.1939C37.2357 74.1939 36.2818 72.8154 35.8881 70.0584C35.8881 66.26 38.6287 61.2362 44.1099 54.9871L68.8661 26.6364C69.0478 26.0238 69.502 25.7174 70.2288 25.7174C71.3493 25.7174 72.0912 25.8553 72.4546 26.131C72.818 26.4067 72.9997 26.7436 72.9997 27.1419C72.9997 27.5094 72.6817 28.0608 72.0458 28.796L49.8788 53.287C49.909 53.3176 49.9999 53.3329 50.1513 53.3329C50.333 53.3329 50.5147 53.287 50.6964 53.1951C56.2987 50.1624 61.8102 46.609 67.2308 42.5348C67.5033 42.7493 67.6396 43.0097 67.6396 43.316C67.6396 43.6223 67.4882 43.9133 67.1854 44.189C66.9128 44.4647 66.5191 44.8629 66.0043 45.3837C65.4895 45.8738 64.4902 46.7928 63.0063 48.1406C61.5225 49.4579 60.0841 50.6679 58.691 51.7706C57.3283 52.8428 55.799 53.8843 54.1032 54.8952C52.4074 55.9061 50.9387 56.5494 49.6971 56.8251ZM39.0224 70.1503C39.8097 70.1503 40.9908 69.3692 42.5655 67.8069C44.1402 66.2446 45.5635 64.4833 46.8353 62.5228C48.1072 60.5623 48.7432 59.0612 48.7432 58.0197C48.7432 57.0089 48.4252 56.5034 47.7892 56.5034C47.5167 56.5034 47.1987 56.6566 46.8353 56.9629C45.3818 58.372 43.9888 60.1181 42.6563 62.2011C41.3239 64.2841 40.3397 66.0149 39.7037 67.3934C39.0678 68.7719 38.7498 69.5683 38.7498 69.7827C38.7498 70.0278 38.8407 70.1503 39.0224 70.1503Z"/>
<path d="M79.3718 35.183L81.6885 35.137C84.6864 35.137 86.8668 35.5659 88.2295 36.4236C88.8958 36.638 89.2289 36.9137 89.2289 37.2507C89.2289 37.4957 88.926 37.6642 88.3204 37.7561C87.745 37.848 85.7009 38.0931 82.1881 38.4913C78.7056 38.8589 76.3133 39.0733 75.0111 39.1346C74.4357 39.1652 73.1033 40.1761 71.0138 42.1672C68.9545 44.1584 66.9862 46.3486 65.1086 48.738C63.2311 51.1273 62.2923 52.7968 62.2923 53.7465C62.2923 53.8996 62.368 54.0375 62.5195 54.16C62.6709 54.2519 62.8526 54.2978 63.0645 54.2978C63.3068 54.2978 63.6702 54.2059 64.1547 54.0222C69.9084 50.5913 75.4956 46.8388 80.9162 42.7646C81.1888 42.979 81.3251 43.2394 81.3251 43.5457C81.3251 43.8521 81.1736 44.1584 80.8708 44.4647C80.568 44.7404 80.1137 45.1539 79.5081 45.7053C78.9327 46.2567 77.8425 47.2523 76.2376 48.692C74.6326 50.1318 73.1184 51.4184 71.6951 52.5518C67.8795 55.6763 65.2146 57.4837 63.7005 57.9738C63.1554 58.1269 62.5043 58.2035 61.7472 58.2035C61.0205 58.2035 60.3391 57.8206 59.7032 57.0548C59.0975 56.289 58.7947 55.2475 58.7947 53.9303C58.7947 52.613 59.6274 50.7138 61.293 48.2325C62.9888 45.7513 65.2903 43.2088 68.1975 40.605C68.47 40.3905 68.6063 40.1914 68.6063 40.0076C68.6063 39.8238 68.2883 39.7319 67.6524 39.7319L64.7907 39.8238C60.7631 39.8238 58.6887 39.3643 58.5676 38.4454C57.6288 38.2616 57.1594 37.9859 57.1594 37.6183C57.1594 37.4957 57.22 37.4345 57.3411 37.4345C57.4622 37.4038 57.5682 37.3885 57.6591 37.3885C57.7499 37.3579 57.9013 37.3273 58.1133 37.2966C58.3253 37.266 59.9908 37.0209 63.11 36.5614C66.2594 36.102 69.8327 35.719 73.8301 35.4127L76.9643 31.1854C77.146 30.8178 77.782 30.634 78.8722 30.634C79.9623 30.634 80.5074 30.8637 80.5074 31.3232C80.5074 31.4764 80.3863 31.7521 80.144 32.1503L79.0084 33.7585C78.857 34.2487 78.7662 34.6163 78.7359 34.8613C78.7359 35.0758 78.9479 35.183 79.3718 35.183Z"/>
</mask>
<path d="M1.46582 39.3643C1.46582 38.4147 1.82921 37.4957 2.556 36.6074C3.28279 35.719 4.08528 34.8613 4.96348 34.0342C5.84168 33.2072 7.1287 32.2269 8.82454 31.0935C10.5507 29.9294 12.3828 28.9032 14.3209 28.0149C16.259 27.0959 18.6362 26.3148 21.4525 25.6715C24.2688 25.0282 27.1759 24.7065 30.1739 24.7065C32.7782 24.7065 35.3674 25.212 37.9414 26.2229C39.2436 26.7436 40.3035 27.5094 41.1211 28.5203C41.969 29.5006 42.393 30.6493 42.393 31.9665C42.393 34.0189 41.1665 36.0713 38.7136 38.1237C36.2607 40.1761 31.9757 42.4583 25.8586 44.9702C25.2529 45.1233 24.9501 45.3377 24.9501 45.6134C24.9501 45.7053 25.0107 45.8126 25.1318 45.9351C29.432 50.9589 32.9751 54.4663 35.7611 56.4575C36.0942 56.7332 36.2607 57.0089 36.2607 57.2845C36.2607 57.9585 35.2765 58.2954 33.3082 58.2954C31.3398 58.2954 29.7045 57.6521 28.4024 56.3656C22.8909 50.4534 19.4235 46.5018 18.0002 44.5107C17.9699 44.3881 17.9094 44.3269 17.8185 44.3269C17.758 44.3269 17.6823 44.3881 17.5914 44.5107C12.6856 50.6066 9.85415 54.6042 9.09708 56.5034C9.09708 56.9935 9.00623 57.2386 8.82454 57.2386C8.67312 57.2386 8.41572 57.1467 8.05233 56.9629C7.68893 56.7791 7.3104 56.4268 6.91672 55.9061C6.52305 55.3853 6.32621 54.7573 6.32621 54.0222C6.32621 53.2563 6.62903 52.322 7.23469 51.2192C11.5348 44.9089 16.0773 39.6094 20.8619 35.3208C22.8909 33.5135 24.7987 32.1044 26.5854 31.0935C26.8579 30.8484 27.1002 30.7259 27.3122 30.7259C27.5544 30.7259 27.827 30.8331 28.1298 31.0475C28.4629 31.262 28.6295 31.5223 28.6295 31.8287C28.6295 32.1044 28.5083 32.3494 28.2661 32.5639C24.299 36.6074 21.5736 39.6247 20.0897 41.6159C19.6961 42.0447 19.4992 42.3357 19.4992 42.4889C19.4992 42.6421 19.5749 42.7186 19.7263 42.7186H19.908C23.542 41.7078 26.4794 40.6969 28.7203 39.686C33.4747 37.5111 37.0784 35.2136 39.5313 32.7936C40.0461 32.3035 40.3035 31.8287 40.3035 31.3692C40.3035 30.6646 39.713 30.1286 38.5319 29.761C37.3812 29.3934 35.534 29.2096 32.9902 29.2096C30.4767 29.2096 27.3879 29.5925 23.7237 30.3583C20.0594 31.1241 16.4104 32.3647 12.7764 34.0802C9.14251 35.765 6.44734 37.7255 4.69094 39.9617C4.44867 40.2374 4.32754 40.4365 4.32754 40.559C4.32754 40.6509 4.4941 40.6969 4.82721 40.6969C5.16032 40.6969 6.18993 40.314 7.91605 39.5481C9.67245 38.7823 11.1715 38.0318 12.413 37.2966C14.3511 35.9794 15.5625 35.3208 16.047 35.3208C16.2287 35.3208 16.3195 35.3668 16.3195 35.4587C16.3195 35.5199 16.1227 35.7803 15.729 36.2398C15.3656 36.6993 14.8357 37.2813 14.1392 37.9859C13.4729 38.6904 12.6402 39.4716 11.6408 40.3293C9.36963 42.3204 7.28011 43.316 5.3723 43.316C4.34268 43.316 3.50991 42.9943 2.87397 42.351C2.20775 41.6771 1.81407 41.0032 1.69294 40.3293L1.46582 39.3643Z" stroke="black" stroke-width="1.41575" mask="url(#path-4-outside-1_87_147)"/>
<path d="M49.2698 33.6666C49.5726 33.6666 49.7695 33.7279 49.8603 33.8504C50.2843 34.3712 50.4962 34.8001 50.4962 35.137C50.4962 35.4433 50.4054 35.719 50.2237 35.9641C50.042 36.1785 49.8149 36.4389 49.5423 36.7452C49.3001 37.0209 48.7853 37.4192 47.9979 37.9399C47.2408 38.43 46.4989 38.6751 45.7721 38.6751C45.227 38.5832 44.9545 38.2462 44.9545 37.6642C44.9545 36.7452 45.4996 35.8569 46.5898 34.9992C47.6799 34.1108 48.5733 33.6666 49.2698 33.6666ZM38.368 51.7706C38.1257 52.1995 38.0046 52.5824 38.0046 52.9194C38.0046 53.2563 38.1863 53.4248 38.5497 53.4248C38.7617 53.4248 39.1251 53.3329 39.6399 53.1491C45.3027 50.1471 50.8445 46.609 56.2651 42.5348C56.5377 42.7493 56.6739 43.0097 56.6739 43.316C56.6739 43.6223 56.5225 43.9133 56.2197 44.189C55.9169 44.4647 55.4778 44.8629 54.9024 45.3837C54.3573 45.9045 53.2974 46.8388 51.7227 48.1866C50.148 49.5344 48.6793 50.7598 47.3166 51.8625C43.7432 54.7727 41.1086 56.4881 39.4127 57.0089C38.8677 57.162 38.2771 57.2386 37.6412 57.2386C35.3094 57.2386 34.1435 55.9827 34.1435 53.4708C34.1435 52.4905 34.6735 51.0967 35.7334 49.2894C36.7933 47.4514 37.8835 45.8432 39.0039 44.4647C40.1244 43.0556 40.8663 42.2745 41.2297 42.1213C41.7748 41.7843 42.3653 41.6159 43.0013 41.6159C43.6372 41.6159 44.2429 41.7384 44.8182 41.9835C44.9999 42.0754 45.0908 42.1979 45.0908 42.351C45.0908 42.5042 44.9394 42.734 44.6365 43.0403C44.364 43.3466 43.9249 43.8214 43.3192 44.4647C42.7439 45.108 41.8657 46.2261 40.6846 47.819C39.5339 49.3813 38.7617 50.6985 38.368 51.7706Z" stroke="black" stroke-width="1.41575" mask="url(#path-4-outside-1_87_147)"/>
<path d="M49.6971 56.8251C49.6971 56.8863 49.7728 57.0395 49.9242 57.2845C50.3481 57.9585 50.5601 59 50.5601 60.4091C50.5601 61.8182 49.8333 63.6409 48.3798 65.8771C46.9565 68.1439 45.3061 70.0891 43.4285 71.7126C41.5207 73.3668 39.9611 74.1939 38.7498 74.1939C37.2357 74.1939 36.2818 72.8154 35.8881 70.0584C35.8881 66.26 38.6287 61.2362 44.1099 54.9871L68.8661 26.6364C69.0478 26.0238 69.502 25.7174 70.2288 25.7174C71.3493 25.7174 72.0912 25.8553 72.4546 26.131C72.818 26.4067 72.9997 26.7436 72.9997 27.1419C72.9997 27.5094 72.6817 28.0608 72.0458 28.796L49.8788 53.287C49.909 53.3176 49.9999 53.3329 50.1513 53.3329C50.333 53.3329 50.5147 53.287 50.6964 53.1951C56.2987 50.1624 61.8102 46.609 67.2308 42.5348C67.5033 42.7493 67.6396 43.0097 67.6396 43.316C67.6396 43.6223 67.4882 43.9133 67.1854 44.189C66.9128 44.4647 66.5191 44.8629 66.0043 45.3837C65.4895 45.8738 64.4902 46.7928 63.0063 48.1406C61.5225 49.4579 60.0841 50.6679 58.691 51.7706C57.3283 52.8428 55.799 53.8843 54.1032 54.8952C52.4074 55.9061 50.9387 56.5494 49.6971 56.8251ZM39.0224 70.1503C39.8097 70.1503 40.9908 69.3692 42.5655 67.8069C44.1402 66.2446 45.5635 64.4833 46.8353 62.5228C48.1072 60.5623 48.7432 59.0612 48.7432 58.0197C48.7432 57.0089 48.4252 56.5034 47.7892 56.5034C47.5167 56.5034 47.1987 56.6566 46.8353 56.9629C45.3818 58.372 43.9888 60.1181 42.6563 62.2011C41.3239 64.2841 40.3397 66.0149 39.7037 67.3934C39.0678 68.7719 38.7498 69.5683 38.7498 69.7827C38.7498 70.0278 38.8407 70.1503 39.0224 70.1503Z" stroke="black" stroke-width="1.41575" mask="url(#path-4-outside-1_87_147)"/>
<path d="M79.3718 35.183L81.6885 35.137C84.6864 35.137 86.8668 35.5659 88.2295 36.4236C88.8958 36.638 89.2289 36.9137 89.2289 37.2507C89.2289 37.4957 88.926 37.6642 88.3204 37.7561C87.745 37.848 85.7009 38.0931 82.1881 38.4913C78.7056 38.8589 76.3133 39.0733 75.0111 39.1346C74.4357 39.1652 73.1033 40.1761 71.0138 42.1672C68.9545 44.1584 66.9862 46.3486 65.1086 48.738C63.2311 51.1273 62.2923 52.7968 62.2923 53.7465C62.2923 53.8996 62.368 54.0375 62.5195 54.16C62.6709 54.2519 62.8526 54.2978 63.0645 54.2978C63.3068 54.2978 63.6702 54.2059 64.1547 54.0222C69.9084 50.5913 75.4956 46.8388 80.9162 42.7646C81.1888 42.979 81.3251 43.2394 81.3251 43.5457C81.3251 43.8521 81.1736 44.1584 80.8708 44.4647C80.568 44.7404 80.1137 45.1539 79.5081 45.7053C78.9327 46.2567 77.8425 47.2523 76.2376 48.692C74.6326 50.1318 73.1184 51.4184 71.6951 52.5518C67.8795 55.6763 65.2146 57.4837 63.7005 57.9738C63.1554 58.1269 62.5043 58.2035 61.7472 58.2035C61.0205 58.2035 60.3391 57.8206 59.7032 57.0548C59.0975 56.289 58.7947 55.2475 58.7947 53.9303C58.7947 52.613 59.6274 50.7138 61.293 48.2325C62.9888 45.7513 65.2903 43.2088 68.1975 40.605C68.47 40.3905 68.6063 40.1914 68.6063 40.0076C68.6063 39.8238 68.2883 39.7319 67.6524 39.7319L64.7907 39.8238C60.7631 39.8238 58.6887 39.3643 58.5676 38.4454C57.6288 38.2616 57.1594 37.9859 57.1594 37.6183C57.1594 37.4957 57.22 37.4345 57.3411 37.4345C57.4622 37.4038 57.5682 37.3885 57.6591 37.3885C57.7499 37.3579 57.9013 37.3273 58.1133 37.2966C58.3253 37.266 59.9908 37.0209 63.11 36.5614C66.2594 36.102 69.8327 35.719 73.8301 35.4127L76.9643 31.1854C77.146 30.8178 77.782 30.634 78.8722 30.634C79.9623 30.634 80.5074 30.8637 80.5074 31.3232C80.5074 31.4764 80.3863 31.7521 80.144 32.1503L79.0084 33.7585C78.857 34.2487 78.7662 34.6163 78.7359 34.8613C78.7359 35.0758 78.9479 35.183 79.3718 35.183Z" stroke="black" stroke-width="1.41575" mask="url(#path-4-outside-1_87_147)"/>
<path d="M22.0432 22.9382L22.3912 22.6019C22.5913 22.7495 22.7809 22.7368 22.9598 22.5639C23.1375 22.3922 23.2261 22.2336 23.2255 22.0881C23.225 21.9399 23.0577 21.6888 22.7236 21.335L20.9658 19.4732L21.3635 19.0889L23.1062 20.9346C23.4858 21.3368 23.6962 21.6897 23.7371 21.9936C23.7769 22.2961 23.6323 22.6062 23.3035 22.9238C23.1139 23.107 22.9044 23.2005 22.6748 23.2044C22.4466 23.2071 22.2361 23.1183 22.0432 22.9382Z" fill="black"/>
<path d="M22.9843 17.6163L23.4313 17.2906L25.04 19.5499C25.1832 19.7511 25.3647 19.8709 25.5844 19.9093C25.803 19.9461 26.0166 19.8886 26.2251 19.7366C26.4457 19.576 26.5743 19.3864 26.6112 19.168C26.648 18.9496 26.5894 18.7323 26.4354 18.516L24.8348 16.268L25.2818 15.9424L26.9161 18.2377C27.1535 18.5711 27.2354 18.907 27.162 19.2456C27.089 19.5816 26.8744 19.8794 26.5183 20.1388C26.1518 20.4058 25.8042 20.52 25.4756 20.4811C25.147 20.4423 24.8608 20.2517 24.617 19.9093L22.9843 17.6163Z" fill="black"/>
<path d="M28.8848 18.1981L28.8285 17.6519C28.9545 17.6705 29.0969 17.6668 29.2558 17.6408C29.4155 17.6123 29.5491 17.5694 29.6565 17.5123C29.8469 17.4111 29.9727 17.2774 30.0339 17.1113C30.0951 16.9451 30.0836 16.7811 29.9995 16.6191C29.9366 16.4981 29.8458 16.4033 29.7272 16.3349C29.6093 16.264 29.3891 16.2359 29.0665 16.2508L28.7083 16.269C28.4047 16.2843 28.1632 16.2394 27.9839 16.1343C27.8063 16.0283 27.6601 15.8649 27.5454 15.6441C27.406 15.3758 27.3848 15.1031 27.4819 14.8261C27.5789 14.549 27.7755 14.3318 28.0718 14.1743C28.4673 13.964 28.776 13.8824 28.9977 13.9294L29.0755 14.4329C28.9857 14.4201 28.8627 14.4271 28.7062 14.4539C28.5498 14.4807 28.4146 14.5244 28.3007 14.5849C28.1347 14.6732 28.0283 14.7903 27.9816 14.9362C27.9364 15.0813 27.9526 15.2283 28.0299 15.3771C28.0775 15.4687 28.1379 15.5431 28.2112 15.6001C28.2845 15.6572 28.3644 15.6951 28.451 15.7138C28.5392 15.7316 28.7015 15.7361 28.9379 15.7274L29.3035 15.7115C29.608 15.6978 29.8512 15.746 30.033 15.856C30.2156 15.9636 30.3715 16.1416 30.5006 16.3903C30.6409 16.6602 30.6516 16.9468 30.5329 17.25C30.4157 17.5523 30.1765 17.7995 29.8152 17.9916C29.4978 18.1604 29.1876 18.2292 28.8848 18.1981Z" fill="black"/>
<path d="M32.3413 12.8409L33.5703 16.1748L33.0528 16.37L31.8239 13.0361L30.6182 13.4908L30.4461 13.0238L33.4292 11.8986L33.6013 12.3657L32.3413 12.8409Z" fill="black"/>
<path d="M38.8371 14.7294L37.6961 14.9139L37.0635 10.9127C37.5456 10.8104 37.8941 10.7419 38.1088 10.7072C38.5037 10.6433 38.823 10.6794 39.0666 10.8156C39.3099 10.9499 39.4566 11.1754 39.5067 11.4922C39.536 11.678 39.4937 11.8585 39.3795 12.0338C39.2654 12.2091 39.1277 12.3295 38.9663 12.3948C39.295 12.42 39.5452 12.5093 39.7169 12.6627C39.8904 12.8158 40.0012 13.0443 40.0493 13.3484C40.1048 13.6998 40.02 14.0011 39.7946 14.2523C39.5712 14.5032 39.252 14.6622 38.8371 14.7294ZM37.6785 11.2614L37.8603 12.4112C37.9767 12.4036 38.1195 12.3861 38.2887 12.3587C38.8055 12.2751 39.0307 12.023 38.9642 11.6024C38.9058 11.2328 38.6391 11.0864 38.1641 11.1632C37.9821 11.1927 37.8203 11.2254 37.6785 11.2614ZM37.9272 12.8346L38.1686 14.3613C38.3589 14.3492 38.5041 14.3351 38.6042 14.3189C38.9463 14.2635 39.1855 14.1595 39.3219 14.0067C39.4598 13.8518 39.5066 13.6341 39.4622 13.3537C39.4211 13.0934 39.3152 12.9135 39.1446 12.8141C38.9758 12.7144 38.7158 12.693 38.3645 12.7498L37.9272 12.8346Z" fill="black"/>
<path d="M43.9524 14.2942L42.8364 12.5776C42.713 12.5801 42.5174 12.5749 42.2498 12.562L42.2854 14.3286L41.7325 14.34L41.6509 10.2898C41.6712 10.2894 41.8139 10.28 42.079 10.2617C42.346 10.2414 42.5402 10.23 42.6619 10.2275C43.635 10.2075 44.1294 10.5845 44.145 11.3586C44.1501 11.6129 44.0764 11.844 43.9238 12.0518C43.7713 12.2578 43.5877 12.3878 43.373 12.442L44.5855 14.2812L43.9524 14.2942ZM42.2138 10.7761L42.2403 12.092C42.3734 12.1077 42.5026 12.1143 42.6279 12.1117C42.9597 12.1049 43.2 12.0464 43.349 11.9364C43.498 11.8264 43.5697 11.6341 43.5642 11.3595C43.5596 11.1328 43.4752 10.9713 43.311 10.8752C43.1469 10.779 42.8897 10.7345 42.5395 10.7417C42.4842 10.7428 42.3756 10.7543 42.2138 10.7761Z" fill="black"/>
<path d="M45.8115 14.3694L46.1666 10.334L46.7174 10.3836L46.3623 14.419L45.8115 14.3694Z" fill="black"/>
<path d="M48.8551 14.738L48.057 14.5694L48.876 10.6021C49.3884 10.6915 49.7158 10.7512 49.8583 10.7813C50.412 10.8983 50.8154 11.1597 51.0686 11.5655C51.3221 11.9695 51.3911 12.4513 51.2756 13.011C50.9804 14.4408 50.1736 15.0165 48.8551 14.738ZM49.3165 11.2039L48.7043 14.1692C48.8215 14.2127 48.9693 14.2534 49.1478 14.2911C49.5266 14.3711 49.8535 14.2923 50.1284 14.0545C50.4037 13.815 50.5936 13.4425 50.6979 12.937C50.8917 11.9982 50.5675 11.4399 49.7252 11.2619C49.6747 11.2513 49.5385 11.2319 49.3165 11.2039Z" fill="black"/>
<path d="M56.5624 13.1369L56.1832 13.4766C55.9999 13.1809 55.7842 12.9834 55.536 12.8842C55.1423 12.7267 54.7773 12.7416 54.4409 12.9286C54.1046 13.1157 53.8468 13.4385 53.6676 13.8969C53.4971 14.333 53.4712 14.7286 53.5896 15.0837C53.7098 15.4396 53.9625 15.6945 54.3476 15.8485C54.6215 15.958 54.8753 15.9643 55.1092 15.8672L55.4545 14.9839L54.9333 14.7754L55.1044 14.3376L56.1391 14.7514L55.4969 16.3945C55.3143 16.4565 55.0865 16.4746 54.8136 16.4488C54.5413 16.4213 54.2896 16.3614 54.0586 16.2689C53.54 16.0615 53.1988 15.7216 53.0352 15.2491C52.8739 14.7756 52.9077 14.2461 53.1365 13.6607C53.3647 13.0769 53.7139 12.6696 54.1841 12.4388C54.6567 12.2069 55.1729 12.2029 55.7326 12.4268C56.1245 12.5835 56.4011 12.8202 56.5624 13.1369Z" fill="black"/>
<path d="M59.6079 14.8734L59.0388 15.8443L60.1864 16.5328L59.9487 16.9383L58.801 16.2498L58.0626 17.5093L59.6371 18.4538L59.3853 18.8832L57.3366 17.6542L59.3854 14.1595L61.4602 15.4042L61.2085 15.8336L59.6079 14.8734Z" fill="black"/>
<path d="M62.1667 20.9383L64.7718 17.8361L65.1912 18.1965L62.5862 21.2987L62.1667 20.9383Z" fill="black"/>
<path d="M67.5316 21.13L64.9572 23.579L64.5806 23.174L67.155 20.7249L66.2777 19.7812L66.6383 19.4382L68.8091 21.7731L68.4485 22.1162L67.5316 21.13Z" fill="black"/>
<path d="M21.1391 65.5637L20.3384 66.3582L21.268 67.3168L20.9336 67.6487L20.004 66.6901L18.9653 67.7208L20.2407 69.0359L19.8866 69.3872L18.2271 67.676L21.109 64.8162L22.7896 66.5492L22.4356 66.9006L21.1391 65.5637Z" fill="black"/>
<path d="M21.8264 70.6942L22.2975 70.4177C22.3314 70.5416 22.3921 70.6716 22.4795 70.8077C22.5696 70.9434 22.662 71.0491 22.7568 71.1248C22.925 71.259 23.0964 71.3203 23.2712 71.3085C23.446 71.2967 23.5897 71.2186 23.7022 71.0744C23.7863 70.9666 23.8355 70.8438 23.8496 70.7062C23.8663 70.5682 23.803 70.3533 23.6598 70.0616L23.4992 69.7384C23.3632 69.4643 23.3066 69.2229 23.3295 69.0142C23.3538 68.8066 23.4427 68.6045 23.5962 68.4078C23.7826 68.1688 24.0206 68.0372 24.31 68.013C24.5995 67.9887 24.875 68.0809 25.1366 68.2897C25.4858 68.5685 25.6838 68.82 25.7305 69.0441L25.3066 69.3228C25.2821 69.2347 25.2263 69.1239 25.1391 68.9905C25.052 68.8571 24.9581 68.7502 24.8575 68.6699C24.7109 68.5529 24.5623 68.5028 24.4115 68.5196C24.2623 68.5375 24.1359 68.6128 24.0324 68.7454C23.9688 68.827 23.9259 68.9134 23.9038 69.0045C23.8817 69.0956 23.8796 69.185 23.8975 69.2726C23.9169 69.3613 23.9781 69.5131 24.0812 69.7277L24.2427 70.0588C24.3775 70.3343 24.4318 70.5787 24.4055 70.7917C24.3818 71.0045 24.2835 71.2216 24.1107 71.4431C23.9232 71.6835 23.6685 71.8112 23.3466 71.8262C23.0262 71.8423 22.7065 71.723 22.3874 71.4683C22.1072 71.2446 21.9202 70.9865 21.8264 70.6942Z" fill="black"/>
<path d="M28.5923 71.2311L26.8137 74.3174L26.3385 74.0372L28.1171 70.9509L27.01 70.298L27.2591 69.8657L29.9985 71.4811L29.7493 71.9134L28.5923 71.2311Z" fill="black"/>
<path d="M30.6401 75.0507C30.7454 75.0944 30.8201 75.1695 30.8643 75.2758C30.9084 75.3822 30.909 75.4885 30.8659 75.5946C30.8228 75.7008 30.7483 75.7769 30.6423 75.8229C30.537 75.8672 30.4317 75.8675 30.3264 75.8237C30.2211 75.78 30.1463 75.705 30.1022 75.5986C30.0587 75.4905 30.0585 75.3834 30.1016 75.2772C30.1447 75.1711 30.2189 75.0959 30.3242 75.0516C30.4295 75.0073 30.5348 75.007 30.6401 75.0507Z" fill="black"/>
<path d="M56.6571 76.2399L56.6117 76.1389L56.9655 73.834C57.0391 73.3512 57.0177 72.9801 56.9011 72.7209C56.7475 72.3791 56.4792 72.2964 56.0962 72.4725C55.9607 72.5349 55.8498 72.6295 55.7636 72.7565C55.6766 72.8819 55.6309 73.0115 55.6266 73.1456L55.1826 73.0268C55.1653 72.8356 55.2176 72.6532 55.3393 72.4794C55.4626 72.3048 55.6423 72.1633 55.8781 72.0548C56.2311 71.8925 56.5441 71.848 56.8173 71.9214C57.0898 71.9932 57.2933 72.1789 57.428 72.4786C57.5529 72.7563 57.5781 73.1673 57.5038 73.7114L57.2708 75.4092L58.711 74.7468L58.9153 75.2013L56.6571 76.2399Z" fill="black"/>
<path d="M59.8261 72.1226C59.522 71.6248 59.3741 71.1568 59.3823 70.7184C59.3906 70.28 59.5758 69.9476 59.9379 69.7212C60.2969 69.4967 60.6461 69.4591 60.9854 69.6084C61.3262 69.7566 61.6958 70.1568 62.0943 70.8089C62.4369 71.3697 62.6125 71.8706 62.6209 72.3115C62.6284 72.751 62.4503 73.0844 62.0866 73.3118C61.7229 73.5392 61.3672 73.582 61.0195 73.4402C60.6734 73.2974 60.2756 72.8582 59.8261 72.1226ZM60.3204 71.8723C60.9065 72.8316 61.4025 73.1844 61.8084 72.9306C62.0409 72.7852 62.1469 72.572 62.1262 72.291C62.1056 72.0101 61.9326 71.6034 61.6073 71.071C61.383 70.704 61.1974 70.4478 61.0503 70.3025C60.9032 70.1571 60.7559 70.0696 60.6084 70.04C60.4608 70.0103 60.3153 70.0404 60.1716 70.1302C59.7299 70.4064 59.7795 70.9871 60.3204 71.8723Z" fill="black"/>
<path d="M64.6759 71.3766L64.6056 71.2911L64.3388 68.9716C64.2824 68.4858 64.164 68.1331 63.9834 67.9136C63.7453 67.6241 63.465 67.6152 63.1425 67.8866C63.0284 67.9826 62.9466 68.1034 62.897 68.2488C62.8463 68.3929 62.8365 68.5302 62.8676 68.6608L62.4086 68.6635C62.3416 68.4835 62.3438 68.2934 62.4152 68.0934C62.4881 67.8922 62.6238 67.708 62.8224 67.5408C63.1196 67.2907 63.4094 67.165 63.6919 67.1637C63.9733 67.1609 64.2183 67.2864 64.427 67.5402C64.6205 67.7754 64.7532 68.1656 64.825 68.7108L65.048 70.4121L66.2607 69.3915L66.5773 69.7764L64.6759 71.3766Z" fill="black"/>
<path d="M68.7094 65.6008L69.522 66.3492L69.171 66.7392L68.3584 65.9907L67.1261 67.3597L66.8939 67.1459L66.3969 63.7336L66.5263 63.5899L68.3958 65.3119L68.6692 65.0081L68.9829 65.297L68.7094 65.6008ZM66.9878 64.7283L67.2503 66.5844L68.0448 65.7019L66.9878 64.7283Z" fill="black"/>
</g>
<defs>
<clipPath id="clip0_87_147">
<rect width="90" height="90" fill="white"/>
</clipPath>
</defs>
</svg>
